<?xml version="1.0" encoding="UTF-8" standalone="no"?>
<!-- Created with Inkscape (http://www.inkscape.org/) -->

<svg
   xmlns:dc="http://purl.org/dc/elements/1.1/"
   xmlns:cc="http://creativecommons.org/ns#"
   xmlns:rdf="http://www.w3.org/1999/02/22-rdf-syntax-ns#"
   xmlns:svg="http://www.w3.org/2000/svg"
   xmlns="http://www.w3.org/2000/svg"
   xmlns:sodipodi="http://sodipodi.sourceforge.net/DTD/sodipodi-0.dtd"
   xmlns:inkscape="http://www.inkscape.org/namespaces/inkscape"
   width="181.06795mm"
   height="179.7084mm"
   viewBox="0 0 181.06795 179.7084"
   version="1.1"
   id="svg8"
   sodipodi:docname="logo.svg"
   inkscape:version="0.92.5 (2060ec1f9f, 2020-04-08)">
  <defs
     id="defs2" />
  <sodipodi:namedview
     id="base"
     pagecolor="#ffffff"
     bordercolor="#666666"
     borderopacity="1.0"
     inkscape:pageopacity="0.0"
     inkscape:pageshadow="2"
     inkscape:zoom="0.35000001"
     inkscape:cx="-178.1788"
     inkscape:cy="-94.804263"
     inkscape:document-units="mm"
     inkscape:current-layer="layer1"
     showgrid="false"
     inkscape:snap-global="false"
     inkscape:window-width="1848"
     inkscape:window-height="1016"
     inkscape:window-x="72"
     inkscape:window-y="27"
     inkscape:window-maximized="1"
     showguides="false" />
  <metadata
     id="metadata5">
    <rdf:RDF>
      <cc:Work
         rdf:about="">
        <dc:format>image/svg+xml</dc:format>
        <dc:type
           rdf:resource="http://purl.org/dc/dcmitype/StillImage" />
      </cc:Work>
    </rdf:RDF>
  </metadata>
  <g
     inkscape:label="Layer 1"
     inkscape:groupmode="layer"
     id="layer1"
     transform="translate(-942.20924,-281.35667)">
    <text
       xml:space="preserve"
       style="font-style:normal;font-variant:normal;font-weight:normal;font-stretch:normal;font-size:3.8099997px;line-height:1.25;font-family:'DejaVu Math TeX Gyre';-inkscape-font-specification:'DejaVu Math TeX Gyre, Normal';font-variant-ligatures:normal;font-variant-caps:normal;font-variant-numeric:normal;font-feature-settings:normal;text-align:start;letter-spacing:0px;word-spacing:0px;writing-mode:lr-tb;text-anchor:start;fill:#000000;fill-opacity:1;stroke:none;stroke-width:0.23812498"
       x="696.45227"
       y="164.90639"
       id="text3418"><tspan
         sodipodi:role="line"
         id="tspan3416"
         x="696.45227"
         y="168.40016"
         style="stroke-width:0.23812498" /></text>
    <g
       id="g5254"
       transform="matrix(0.9,0,0,0.9,103.27432,37.121087)">
      <g
         transform="matrix(1.44,0,0,1.44,-454.40701,-163.33278)"
         id="g5223">
        <path
           style="opacity:1;fill:#000000;fill-opacity:1;stroke:none;stroke-width:0.1;stroke-linecap:round;stroke-linejoin:round;stroke-miterlimit:4;stroke-dasharray:none;stroke-dashoffset:0;stroke-opacity:1;paint-order:normal"
           id="path1019-3-5"
           d="m 1095.4673,348.09027 c -0.5928,1.02085 -0.9679,2.14123 -1.3266,3.25988 -1.0504,3.46411 -1.65,7.03186 -2.143,10.61024 -0.6183,5.00021 -0.7161,10.04103 -0.6125,15.07185 0.1323,4.73797 0.8407,9.42626 1.579,14.09915 0.5583,2.47426 0.6529,4.97235 0.6805,7.49416 0.016,0.0466 -0.6436,0.27391 -0.6597,0.22726 v 0 c -1.4143,-2.29198 -2.3904,-4.25702 -2.9421,-6.94007 -1.1436,-4.74887 -1.9675,-9.57504 -2.141,-14.46666 -0.1685,-5.20666 -0.097,-10.4336 0.7006,-15.59372 0.6365,-3.78625 1.4076,-7.58628 3.0289,-11.09319 0.6231,-1.25866 1.2414,-2.57379 2.2947,-3.53884 0.062,-0.10898 1.6028,0.76096 1.5412,0.86994 z"
           inkscape:connector-curvature="0" />
        <path
           style="opacity:1;fill:#000000;fill-opacity:1;stroke:none;stroke-width:0.1;stroke-linecap:round;stroke-linejoin:round;stroke-miterlimit:4;stroke-dasharray:none;stroke-dashoffset:0;stroke-opacity:1;paint-order:normal"
           id="path1019-1-03-4"
           d="m 1061.1647,310.51683 c 0.3026,1.14105 0.8296,2.19851 1.367,3.24315 1.7068,3.19223 3.8056,6.13901 5.9873,9.0179 3.0984,3.9729 6.5937,7.60642 10.2243,11.09051 3.4438,3.25671 7.2598,6.07093 11.0861,8.85311 2.1443,1.35475 3.9776,3.05433 5.7803,4.81798 0.044,0.0216 -0.2614,0.64877 -0.3057,0.62715 v 0 c -2.6208,-0.62061 -4.7004,-1.31991 -6.9878,-2.82698 -4.1666,-2.54933 -8.1618,-5.37932 -11.7434,-8.71557 -3.8008,-3.56248 -7.4465,-7.30879 -10.531,-11.5218 -2.2272,-3.12735 -4.369,-6.35967 -5.7023,-9.98583 -0.4494,-1.33061 -0.9422,-2.69771 -0.8797,-4.12495 -0.034,-0.12056 1.6713,-0.59522 1.7049,-0.47467 z"
           inkscape:connector-curvature="0" />
        <path
           style="opacity:1;fill:#000000;fill-opacity:1;stroke:none;stroke-width:0.1;stroke-linecap:round;stroke-linejoin:round;stroke-miterlimit:4;stroke-dasharray:none;stroke-dashoffset:0;stroke-opacity:1;paint-order:normal"
           id="path1019-1-0-0-7"
           d="m 1009.5292,308.81391 c 1.0208,0.59284 2.1412,0.96794 3.2599,1.32663 3.4641,1.05038 7.0318,1.65002 10.6102,2.143 5.0002,0.61831 10.041,0.71607 15.0719,0.61249 4.7379,-0.13228 9.4262,-0.84067 14.0991,-1.57896 2.4743,-0.55835 4.9724,-0.65287 7.4942,-0.68051 0.047,-0.0161 0.2739,0.64359 0.2272,0.65967 v 0 c -2.2919,1.4143 -4.257,2.39038 -6.94,2.94211 -4.7489,1.14357 -9.5751,1.96753 -14.4667,2.14098 -5.2066,0.16856 -10.4336,0.0974 -15.5937,-0.70056 -3.7863,-0.63649 -7.5863,-1.40764 -11.0932,-3.02889 -1.2587,-0.62312 -2.5738,-1.24136 -3.5388,-2.29474 -0.109,-0.0615 0.7609,-1.60273 0.8699,-1.54122 z"
           inkscape:connector-curvature="0" />
        <path
           style="opacity:1;fill:#000000;fill-opacity:1;stroke:none;stroke-width:0.1;stroke-linecap:round;stroke-linejoin:round;stroke-miterlimit:4;stroke-dasharray:none;stroke-dashoffset:0;stroke-opacity:1;paint-order:normal"
           id="path1019-1-3-9-4"
           d="m 971.90625,343.60726 c 1.14104,-0.30266 2.1985,-0.82965 3.24315,-1.36703 3.19222,-1.70676 6.13901,-3.80553 9.01789,-5.98723 3.9729,-3.09848 7.60642,-6.59375 11.09051,-10.22432 3.25672,-3.44379 6.0709,-7.25982 8.8531,-11.08609 1.3548,-2.14439 3.0543,-3.97764 4.818,-5.78036 0.022,-0.0443 0.6488,0.26138 0.6271,0.30575 v 0 c -0.6206,2.62073 -1.3199,4.70042 -2.8269,6.98775 -2.5494,4.16659 -5.3794,8.16183 -8.7156,11.74338 -3.56248,3.80085 -7.30881,7.44655 -11.52181,10.53105 -3.12735,2.22722 -6.35967,4.36897 -9.98582,5.70233 -1.33062,0.44939 -2.69771,0.94216 -4.12496,0.8797 -0.12056,0.0336 -0.59522,-1.67138 -0.47466,-1.70493 z"
           inkscape:connector-curvature="0" />
        <path
           style="opacity:1;fill:#000000;fill-opacity:1;stroke:none;stroke-width:0.1;stroke-linecap:round;stroke-linejoin:round;stroke-miterlimit:4;stroke-dasharray:none;stroke-dashoffset:0;stroke-opacity:1;paint-order:normal"
           id="path1019-4-2-4"
           d="m 970.01916,394.33147 c 0.59284,-1.02085 0.96794,-2.14123 1.32663,-3.25988 1.05038,-3.46411 1.65002,-7.03186 2.143,-10.61024 0.61831,-5.00021 0.71607,-10.04103 0.61249,-15.07185 -0.13228,-4.73797 -0.84067,-9.42626 -1.57896,-14.09915 -0.55835,-2.47426 -0.65287,-4.97235 -0.68051,-7.49416 -0.016,-0.0466 0.64359,-0.27391 0.65967,-0.22726 v 0 c 1.4143,2.29198 2.39038,4.25702 2.94211,6.94007 1.14358,4.74887 1.96753,9.57504 2.14099,14.46666 0.16855,5.20666 0.0974,10.4336 -0.70057,15.59372 -0.63649,3.78625 -1.40764,7.58628 -3.02889,11.09319 -0.62312,1.25866 -1.24137,2.57379 -2.29474,3.53884 -0.0615,0.10898 -1.60273,-0.76096 -1.54122,-0.86994 z"
           inkscape:connector-curvature="0" />
        <path
           style="opacity:1;fill:#000000;fill-opacity:1;stroke:none;stroke-width:0.1;stroke-linecap:round;stroke-linejoin:round;stroke-miterlimit:4;stroke-dasharray:none;stroke-dashoffset:0;stroke-opacity:1;paint-order:normal"
           id="path1019-1-4-54-3"
           d="m 1004.3218,431.90491 c -0.3026,-1.14105 -0.8296,-2.19851 -1.367,-3.24315 -1.7068,-3.19223 -3.80555,-6.13901 -5.98726,-9.0179 -3.09847,-3.9729 -6.59374,-7.60642 -10.22431,-11.09051 -3.44379,-3.25671 -7.25982,-6.07093 -11.0861,-8.85311 -2.14438,-1.35475 -3.97763,-3.05433 -5.78036,-4.81798 -0.0443,-0.0216 0.2614,-0.64877 0.30576,-0.62715 v 0 c 2.62073,0.62061 4.70042,1.31991 6.98775,2.82698 4.16659,2.54933 8.16183,5.37932 11.74338,8.71557 3.80085,3.56248 7.44655,7.30879 10.53105,11.5218 2.22719,3.12735 4.36899,6.35967 5.70229,9.98583 0.4494,1.33061 0.9422,2.69771 0.8797,4.12495 0.034,0.12056 -1.6713,0.59522 -1.7049,0.47467 z"
           inkscape:connector-curvature="0" />
        <path
           style="opacity:1;fill:#000000;fill-opacity:1;stroke:none;stroke-width:0.1;stroke-linecap:round;stroke-linejoin:round;stroke-miterlimit:4;stroke-dasharray:none;stroke-dashoffset:0;stroke-opacity:1;paint-order:normal"
           id="path1019-1-0-4-0-0"
           d="m 1055.9573,433.60783 c -1.0208,-0.59284 -2.1412,-0.96794 -3.2599,-1.32663 -3.4641,-1.05038 -7.0318,-1.65002 -10.6102,-2.143 -5.0002,-0.61831 -10.041,-0.71607 -15.0719,-0.61249 -4.7379,0.13228 -9.4262,0.84067 -14.0991,1.57896 -2.4743,0.55835 -4.9724,0.65287 -7.4942,0.68051 -0.047,0.0161 -0.2739,-0.64359 -0.2272,-0.65967 v 0 c 2.2919,-1.4143 4.257,-2.39038 6.94,-2.94211 4.7489,-1.14357 9.5751,-1.96753 14.4667,-2.14098 5.2067,-0.16856 10.4336,-0.0974 15.5937,0.70056 3.7863,0.63649 7.5863,1.40764 11.0932,3.02889 1.2587,0.62312 2.5738,1.24136 3.5388,2.29474 0.109,0.0615 -0.7609,1.60273 -0.8699,1.54122 z"
           inkscape:connector-curvature="0" />
        <path
           style="opacity:1;fill:#000000;fill-opacity:1;stroke:none;stroke-width:0.1;stroke-linecap:round;stroke-linejoin:round;stroke-miterlimit:4;stroke-dasharray:none;stroke-dashoffset:0;stroke-opacity:1;paint-order:normal"
           id="path1019-1-3-4-5-7"
           d="m 1093.5803,398.81448 c -1.1411,0.30266 -2.1985,0.82965 -3.2432,1.36703 -3.1922,1.70676 -6.139,3.80553 -9.0179,5.98723 -3.9729,3.09848 -7.6064,6.59375 -11.0905,10.22432 -3.2567,3.44379 -6.0709,7.25982 -8.8531,11.08609 -1.3548,2.14439 -3.0543,3.97764 -4.818,5.78036 -0.022,0.0443 -0.6488,-0.26138 -0.6271,-0.30575 v 0 c 0.6206,-2.62073 1.3199,-4.70042 2.8269,-6.98775 2.5494,-4.16659 5.3794,-8.16183 8.7156,-11.74338 3.5625,-3.80085 7.3088,-7.44655 11.5218,-10.53105 3.1274,-2.22722 6.3597,-4.36897 9.9858,-5.70233 1.3307,-0.44939 2.6977,-0.94216 4.125,-0.8797 0.1206,-0.0336 0.5952,1.67138 0.4747,1.70493 z"
           inkscape:connector-curvature="0" />
      </g>
      <g
         transform="translate(446.34009,12.294397)"
         id="g5213">
        <ellipse
           style="opacity:1;fill:#000000;fill-opacity:1;stroke:none;stroke-width:0.1;stroke-linecap:round;stroke-linejoin:round;stroke-miterlimit:4;stroke-dasharray:none;stroke-dashoffset:0;stroke-opacity:1;paint-order:normal"
           id="path873-9-3-9"
           cx="538.39685"
           cy="327.86221"
           rx="6.0431046"
           ry="6.2287865" />
        <ellipse
           style="opacity:1;fill:#000000;fill-opacity:1;stroke:none;stroke-width:0.1;stroke-linecap:round;stroke-linejoin:round;stroke-miterlimit:4;stroke-dasharray:none;stroke-dashoffset:0;stroke-opacity:1;paint-order:normal"
           id="path873-9-3-7-6"
           cx="573.80524"
           cy="330.70416"
           rx="6.0431046"
           ry="6.2287865" />
        <ellipse
           style="opacity:1;fill:#000000;fill-opacity:1;stroke:none;stroke-width:0.1;stroke-linecap:round;stroke-linejoin:round;stroke-miterlimit:4;stroke-dasharray:none;stroke-dashoffset:0;stroke-opacity:1;paint-order:normal"
           id="path873-9-3-1-2"
           cx="539.78735"
           cy="364.34402"
           rx="6.0431046"
           ry="6.2287865" />
        <ellipse
           style="opacity:1;fill:#000000;fill-opacity:1;stroke:none;stroke-width:0.1;stroke-linecap:round;stroke-linejoin:round;stroke-miterlimit:4;stroke-dasharray:none;stroke-dashoffset:0;stroke-opacity:1;paint-order:normal"
           id="path873-9-3-2-1"
           cx="623.69806"
           cy="382.86487"
           rx="6.0431046"
           ry="6.2287865" />
        <ellipse
           style="opacity:1;fill:#000000;fill-opacity:1;stroke:none;stroke-width:0.1;stroke-linecap:round;stroke-linejoin:round;stroke-miterlimit:4;stroke-dasharray:none;stroke-dashoffset:0;stroke-opacity:1;paint-order:normal"
           id="path873-9-3-20-7"
           cx="585.14453"
           cy="420.66251"
           rx="6.0431046"
           ry="6.2287865" />
        <ellipse
           style="opacity:1;fill:#000000;fill-opacity:1;stroke:none;stroke-width:0.1;stroke-linecap:round;stroke-linejoin:round;stroke-miterlimit:4;stroke-dasharray:none;stroke-dashoffset:0;stroke-opacity:1;paint-order:normal"
           id="path873-9-3-21-8"
           cx="581.74274"
           cy="366.61188"
           rx="6.0431046"
           ry="6.2287865" />
        <ellipse
           style="opacity:1;fill:#000000;fill-opacity:1;stroke:none;stroke-width:0.1;stroke-linecap:round;stroke-linejoin:round;stroke-miterlimit:4;stroke-dasharray:none;stroke-dashoffset:0;stroke-opacity:1;paint-order:normal"
           id="path873-9-3-75-5"
           cx="616.13855"
           cy="339.01962"
           rx="6.0431046"
           ry="6.2287865" />
        <ellipse
           style="opacity:1;fill:#000000;fill-opacity:1;stroke:none;stroke-width:0.1;stroke-linecap:round;stroke-linejoin:round;stroke-miterlimit:4;stroke-dasharray:none;stroke-dashoffset:0;stroke-opacity:1;paint-order:normal"
           id="path873-9-3-17-7"
           cx="624.83203"
           cy="302.35596"
           rx="6.0431046"
           ry="6.2287865" />
        <path
           style="opacity:1;fill:#000000;fill-opacity:1;stroke:none;stroke-width:0.1;stroke-linecap:round;stroke-linejoin:round;stroke-miterlimit:4;stroke-dasharray:none;stroke-dashoffset:0;stroke-opacity:1;paint-order:normal"
           id="path3944-4"
           d="m 579.17978,363.49469 c 0.21426,-0.7657 0.59381,-1.47422 0.96486,-2.17304 0.88156,-1.62635 2.09878,-3.02699 3.33637,-4.38808 2.05761,-2.20102 4.38613,-4.11422 6.75298,-5.96813 2.3717,-1.82753 4.8355,-3.53027 7.32695,-5.18914 2.08285,-1.38318 4.23087,-2.66244 6.40363,-3.89797 1.60878,-0.90004 3.23136,-1.77522 4.86267,-2.63369 1.10964,-0.58269 2.23907,-1.12771 3.38191,-1.64209 0.7435,-0.30342 1.4642,-0.74086 2.27883,-0.78686 0.48643,0.30796 0.24037,0.25182 0.71464,0.2503 0.0111,-0.003 0.0609,0.15533 0.0497,0.15884 v 0 c -0.35137,0.46272 -0.19325,0.18526 -0.41638,0.86285 -0.58488,0.6278 -1.36929,0.99342 -2.10301,1.42218 -1.08773,0.61382 -2.18824,1.20498 -3.27477,1.82107 -1.59743,0.9019 -3.19173,1.80968 -4.75949,2.76258 -2.11201,1.27791 -4.20962,2.58044 -6.25964,3.95625 -2.44592,1.63531 -4.87286,3.30084 -7.21675,5.0807 -2.01824,1.54755 -3.9977,3.14413 -5.86468,4.87344 -1.25216,1.22449 -2.47393,2.48567 -3.50162,3.90945 -0.41871,0.60223 -0.81161,1.21881 -1.16465,1.86206 -0.0198,0.10688 -1.53135,-0.17384 -1.51151,-0.28072 z"
           inkscape:connector-curvature="0" />
        <path
           style="opacity:1;fill:#000000;fill-opacity:1;stroke:none;stroke-width:0.1;stroke-linecap:round;stroke-linejoin:round;stroke-miterlimit:4;stroke-dasharray:none;stroke-dashoffset:0;stroke-opacity:1;paint-order:normal"
           id="path3946-1"
           d="m 582.2145,365.77945 c 0.69609,-0.24279 1.41922,-0.39672 2.1286,-0.59608 1.53038,-0.3956 3.00223,-0.96529 4.45381,-1.58371 2.30341,-0.99575 4.49498,-2.21858 6.66798,-3.4671 2.35045,-1.35167 4.59054,-2.88024 6.79272,-4.45855 1.99218,-1.43741 3.88329,-3.00625 5.74093,-4.61163 1.38163,-1.16948 2.65735,-2.45563 3.99365,-3.67442 1.04039,-0.98159 2.01605,-2.02851 2.99482,-3.0707 0.63841,-0.69686 1.29019,-1.38044 1.94963,-2.05739 0.43352,-0.44685 0.85858,-0.90997 1.35702,-1.28561 0.3927,-0.30005 0.85165,-0.0948 1.27448,-0.23842 0.003,-0.006 0.0863,0.0299 0.0837,0.0359 v 0 c 0.0458,0.37815 0.42616,0.60286 0.23987,1.02172 -0.27358,0.52798 -0.66114,0.98812 -1.01986,1.45959 -0.56973,0.74286 -1.14711,1.47907 -1.75565,2.19085 -0.94239,1.10856 -1.9263,2.18063 -2.91764,3.24547 -1.61017,1.6392 -3.22254,3.27814 -4.95241,4.79314 -1.90273,1.66791 -3.85991,3.27287 -5.91106,4.75641 -2.2683,1.63401 -4.5892,3.19741 -7.03154,4.56247 -2.27621,1.25222 -4.60148,2.432 -7.05297,3.30633 -1.57938,0.53146 -3.18178,1.01996 -4.84212,1.2213 -0.71392,0.0723 -1.43748,0.16882 -2.15479,0.088 -0.11581,0.003 -0.15499,-1.6348 -0.0392,-1.63757 z"
           inkscape:connector-curvature="0" />
        <path
           style="opacity:1;fill:#000000;fill-opacity:1;stroke:none;stroke-width:0.1;stroke-linecap:round;stroke-linejoin:round;stroke-miterlimit:4;stroke-dasharray:none;stroke-dashoffset:0;stroke-opacity:1;paint-order:normal"
           id="path3950-8"
           d="m 570.95362,328.60804 c -0.47506,-0.34842 -0.8309,-0.82295 -1.16546,-1.30067 -0.73602,-1.05848 -1.06357,-2.28951 -1.27265,-3.54321 -0.27744,-2.17763 0.5484,-4.12252 1.56742,-5.98959 1.56205,-2.5748 3.67771,-4.72987 5.96032,-6.66887 2.03581,-1.70088 4.33904,-2.95413 6.86015,-3.75144 2.16982,-0.61199 4.37163,-0.48558 6.53224,0.0578 1.44359,0.46425 2.84133,1.25453 3.54417,2.66423 0.13132,0.26337 0.20596,0.55137 0.30893,0.82705 0.47834,2.01188 -0.30699,3.85568 -1.22147,5.60922 -1.13078,1.99799 -2.61279,3.75706 -4.14296,5.45605 -1.65425,1.84262 -3.49215,3.49844 -5.41676,5.051 -1.53149,1.19067 -3.12047,2.31075 -4.76856,3.3342 -0.28501,0.15597 -0.95112,0.55863 -1.30204,0.60975 -0.39237,0.0571 -0.79041,-0.0657 -1.18631,-0.088 -0.0175,0.007 -0.11388,-0.23861 -0.0965,-0.24544 v 0 c 0.21683,-0.4368 0.36203,-0.91413 0.63622,-1.3174 0.2132,-0.31355 0.82833,-0.79678 1.10574,-1.03044 1.50366,-1.17524 3.04382,-2.30371 4.52139,-3.5124 1.50053,-1.25122 2.95883,-2.55503 4.28112,-3.99653 1.4419,-1.58043 2.86176,-3.19413 4.02796,-4.99396 0.74393,-1.22491 1.54511,-2.53072 1.4855,-4.01668 -0.32663,-1.3215 -1.28569,-1.81605 -2.51288,-2.23995 -1.823,-0.47437 -3.65553,-0.53428 -5.47335,0.0432 -2.26648,0.80151 -4.31986,2.00418 -6.13246,3.59489 -1.82118,1.59826 -3.5632,3.28329 -4.90908,5.31848 -0.95115,1.4702 -1.8814,2.98372 -1.76774,4.80491 0.12256,1.02525 0.42786,1.9914 0.967,2.87908 0.25514,0.40121 0.53068,0.78609 0.81479,1.16701 0.0904,0.088 -1.15435,1.36582 -1.24471,1.2778 z"
           inkscape:connector-curvature="0" />
        <path
           style="opacity:1;fill:#000000;fill-opacity:1;stroke:none;stroke-width:0.1;stroke-linecap:round;stroke-linejoin:round;stroke-miterlimit:4;stroke-dasharray:none;stroke-dashoffset:0;stroke-opacity:1;paint-order:normal"
           id="path3954-5"
           d="m 536.41105,364.73516 c -0.51088,-0.17139 -1.04428,-0.24951 -1.5762,-0.32301 -1.3434,-0.16636 -2.69423,-0.0705 -4.03228,0.0887 -1.92206,0.23735 -3.77372,0.80087 -5.57032,1.50555 -1.66442,0.71319 -3.22038,1.69832 -4.46403,3.02427 -1.15178,1.16896 -1.94005,2.57734 -2.26925,4.18072 -0.16055,1.10096 0.23276,1.91944 1.09786,2.57176 1.18555,0.68465 2.5191,0.46391 3.79257,0.19831 1.74469,-0.45731 3.38238,-1.22419 4.98737,-2.03181 1.39546,-0.71835 2.73738,-1.53431 4.04122,-2.40653 1.01925,-0.67363 2.01395,-1.38457 3.0694,-2.00125 0.73935,-0.41705 1.00383,-0.4206 1.8175,-0.25456 0.0143,-0.007 0.11094,0.19606 0.0966,0.20289 v 0 c -0.21471,0.83646 -0.40507,1.39187 -1.07381,1.97579 -0.94247,0.86871 -1.95485,1.65728 -3.00191,2.39617 -1.38017,0.9397 -2.77582,1.8622 -4.26913,2.61566 -1.79951,0.88878 -3.65236,1.70416 -5.64851,2.02918 -1.88394,0.22851 -3.73605,0.17087 -5.30183,-1.04443 -1.3499,-1.27067 -1.92886,-2.46995 -1.75284,-4.35886 0.42852,-1.96916 1.38039,-3.56945 2.72302,-5.06834 1.76649,-1.74495 3.43902,-3.11338 5.79064,-4.01754 1.94559,-0.72875 3.95057,-1.27769 6.02816,-1.46037 1.47826,-0.10245 2.96887,-0.13994 4.42677,0.17824 0.68273,0.1603 1.40076,0.32252 1.96739,0.75965 0.0877,0.0621 -0.79073,1.3019 -0.87839,1.23978 z"
           inkscape:connector-curvature="0" />
        <path
           style="opacity:1;fill:#000000;fill-opacity:1;stroke:none;stroke-width:0.1;stroke-linecap:round;stroke-linejoin:round;stroke-miterlimit:4;stroke-dasharray:none;stroke-dashoffset:0;stroke-opacity:1;paint-order:normal"
           id="path3956-9"
           d="m 538.1677,366.42457 c -0.30861,0.55297 -0.64945,1.08662 -0.94956,1.64503 -0.60997,1.1772 -0.98312,2.45342 -1.32551,3.72831 -0.46136,1.74679 -0.69223,3.53601 -0.80063,5.33571 -0.0762,1.96298 0.1502,3.91917 0.49596,5.84775 0.28472,1.50693 0.80539,2.93939 1.63171,4.23054 0.5175,0.74 1.18745,1.20416 2.10082,1.17009 0.54827,-0.0792 1.22378,-0.36871 1.50098,-0.89369 0.0277,-0.0526 -0.1043,0.0571 -0.15645,0.0857 0.79592,-1.01467 1.09212,-2.28455 1.36374,-3.51814 0.3342,-1.6492 0.42379,-3.32846 0.39466,-5.00662 -0.0497,-1.73243 -0.39185,-3.43462 -0.76243,-5.12161 -0.337,-1.39845 -0.66452,-2.79821 -0.96213,-4.20554 -0.19058,-0.9641 -0.40357,-1.92658 -0.41447,-2.91256 0.22918,-0.63834 0.0681,-0.32812 0.50493,-0.91903 -0.003,-0.0117 0.16129,-0.0593 0.16465,-0.0476 v 0 c 0.58915,0.22938 0.32653,0.0832 0.79733,0.42104 0.50471,0.82483 0.81356,1.74192 1.14651,2.64568 0.48165,1.38184 0.92893,2.77463 1.26318,4.20088 0.43984,1.82713 0.80999,3.6754 0.88693,5.55899 0.0468,1.85387 -0.013,3.71364 -0.39092,5.53615 -0.353,1.59432 -0.80124,3.18588 -1.78848,4.51834 -1.32521,1.37306 -2.06562,2.04695 -4.05032,2.02978 -1.53122,-0.25841 -2.61839,-0.90784 -3.5588,-2.16528 -1.00251,-1.50785 -1.63867,-3.18315 -1.96059,-4.9682 -0.36303,-2.09449 -0.51588,-4.20938 -0.36663,-6.33497 0.13949,-1.94055 0.38642,-3.8748 1.01798,-5.72572 0.46503,-1.37957 0.98637,-2.74578 1.75125,-3.99179 0.3914,-0.62084 0.79111,-1.25828 1.37168,-1.72219 0.0409,-0.0774 1.13554,0.50165 1.09461,0.57904 z"
           inkscape:connector-curvature="0" />
        <path
           style="opacity:1;fill:#000000;fill-opacity:1;stroke:none;stroke-width:0.1;stroke-linecap:round;stroke-linejoin:round;stroke-miterlimit:4;stroke-dasharray:none;stroke-dashoffset:0;stroke-opacity:1;paint-order:normal"
           id="path3972-7"
           d="m 540.1698,325.09633 c 0.75708,0.12583 1.50842,0.27982 2.26677,0.39957 2.20043,0.29415 4.42182,0.40773 6.63543,0.56422 2.81424,0.18787 5.62546,0.41145 8.43253,0.68647 2.67751,0.28638 5.35136,0.60327 8.02982,0.88073 2.14595,0.21873 4.29598,0.39489 6.44459,0.58552 1.4325,0.14191 2.86853,0.24839 4.29921,0.40813 0.92557,0.0832 1.84073,0.23731 2.72158,0.5365 0.48969,0.40394 0.27104,0.1292 0.52372,0.91401 0.0122,0.002 -0.0204,0.17418 -0.0326,0.17187 v 0 c -0.54017,0.72804 -0.22645,0.49251 -0.851,0.81295 -0.94179,0.15873 -1.89442,0.18283 -2.84745,0.12702 -1.44653,-0.0521 -2.89055,-0.15704 -4.33612,-0.22949 -2.17744,-0.133 -4.35425,-0.27677 -6.52685,-0.47598 -2.68102,-0.2569 -5.35681,-0.56404 -8.0359,-0.83975 -2.7936,-0.27739 -5.59205,-0.49344 -8.39118,-0.70663 -2.30764,-0.22293 -4.62854,-0.46432 -6.85911,-1.13017 -0.73837,-0.24884 -1.48357,-0.50612 -2.1513,-0.91606 -0.1265,-0.0479 0.55136,-1.83684 0.67786,-1.78891 z"
           inkscape:connector-curvature="0" />
        <path
           style="opacity:1;fill:#000000;fill-opacity:1;stroke:none;stroke-width:0.1;stroke-linecap:round;stroke-linejoin:round;stroke-miterlimit:4;stroke-dasharray:none;stroke-dashoffset:0;stroke-opacity:1;paint-order:normal"
           id="path3976-5"
           d="m 539.39304,362.8281 c 0.9756,-0.13494 1.97114,-0.0529 2.95182,-0.0214 2.85726,0.0723 5.71349,0.17613 8.56927,0.29217 3.52367,0.14737 7.04475,0.3477 10.56598,0.54343 2.85133,0.15962 5.69833,0.38647 8.54324,0.63364 1.93238,0.16995 3.8654,0.3325 5.79858,0.4933 1.31186,0.11679 2.62556,0.22815 3.92644,0.43771 0.31414,0.0985 1.13935,0.22124 1.36358,0.48786 0.15235,0.18112 0.19924,0.42937 0.29885,0.64406 0.0151,0.003 -0.0266,0.21804 -0.0419,0.21509 v 0 c -0.17671,0.19277 -0.31795,0.4255 -0.53019,0.57832 -0.38664,0.27838 -1.05913,0.19772 -1.49495,0.29365 -1.33244,0.0366 -2.66483,-0.0226 -3.9959,-0.0821 -1.94577,-0.10014 -3.89109,-0.20819 -5.83684,-0.30909 -2.84877,-0.14633 -5.69685,-0.3063 -8.54387,-0.48385 -3.51496,-0.21429 -7.03231,-0.38379 -10.5474,-0.59635 -2.85893,-0.19553 -5.72262,-0.39507 -8.55475,-0.84879 -0.93186,-0.14921 -1.87428,-0.28081 -2.78466,-0.53356 -0.12332,-0.0221 0.18934,-1.76619 0.31266,-1.74408 z"
           inkscape:connector-curvature="0" />
        <path
           style="opacity:1;fill:#000000;fill-opacity:1;stroke:none;stroke-width:0.1;stroke-linecap:round;stroke-linejoin:round;stroke-miterlimit:4;stroke-dasharray:none;stroke-dashoffset:0;stroke-opacity:1;paint-order:normal"
           id="path3986-3"
           d="m 574.3954,332.15518 c 0.41214,1.04249 0.67106,2.14658 0.9797,3.22419 0.70678,2.45143 1.33842,4.92278 1.95456,7.39817 0.66228,2.76937 1.34001,5.535 2.01369,8.30161 0.64201,2.61076 1.3127,5.21432 1.98017,7.81865 0.52064,2.00888 1.02618,4.02155 1.50553,6.04069 0.36229,1.45822 0.61465,2.93876 0.87225,4.41779 0.0801,0.7146 0.58634,1.97035 0.19061,2.65361 -0.13798,0.23823 -0.36039,0.41629 -0.5406,0.62443 0.006,0.0138 -0.18987,0.0909 -0.19532,0.0771 v 0 c -0.25818,-0.0458 -0.53451,-0.0319 -0.77451,-0.1375 -0.68723,-0.30237 -0.88683,-1.81474 -1.09599,-2.4308 -0.40407,-1.41976 -0.76872,-2.84936 -1.12895,-4.28082 -0.53001,-1.98909 -1.10098,-3.96673 -1.65512,-5.94916 -0.72716,-2.60531 -1.43976,-5.21505 -2.07934,-7.84349 -0.6809,-2.77915 -1.31045,-5.57001 -1.9205,-8.36555 -0.53801,-2.51543 -1.06955,-5.03266 -1.50299,-7.56874 -0.19193,-1.20827 -0.48369,-2.47544 -0.2915,-3.69892 -0.0198,-0.11938 1.66841,-0.40063 1.68831,-0.28125 z"
           inkscape:connector-curvature="0" />
        <path
           style="opacity:1;fill:#000000;fill-opacity:1;stroke:none;stroke-width:0.1;stroke-linecap:round;stroke-linejoin:round;stroke-miterlimit:4;stroke-dasharray:none;stroke-dashoffset:0;stroke-opacity:1;paint-order:normal"
           id="path3990-8"
           d="m 582.72467,366.25426 c 0.16547,0.72971 0.13467,1.4983 0.17693,2.24378 0.2087,2.3911 0.41129,4.78228 0.58708,7.17618 0.24609,3.54376 0.49599,7.08723 0.75523,10.63006 0.22801,3.58343 0.56044,7.15779 0.94578,10.72728 0.32673,3.04102 0.72334,6.07374 1.12598,9.10544 0.29544,2.14934 0.6027,4.29701 0.88178,6.44856 0.19894,1.44282 0.27784,2.89711 0.4545,4.34234 0.14089,0.9044 0.21609,1.81544 0.28422,2.72733 0.084,0.91169 0.0462,0.94977 -0.4753,1.6968 0.004,0.009 -0.12433,0.0664 -0.12838,0.0574 v 0 c -0.90122,-0.24012 -0.94546,-0.38039 -1.19742,-1.24444 -0.25871,-0.88464 -0.50983,-1.77238 -0.64715,-2.68607 -0.24783,-1.41907 -0.59182,-2.81821 -0.82446,-4.24023 -0.37098,-2.12896 -0.73245,-4.25959 -1.1058,-6.38814 -0.52636,-3.03923 -1.02317,-6.08443 -1.38182,-9.14881 -0.41341,-3.60571 -0.7498,-7.22037 -0.96699,-10.84359 -0.20585,-3.57178 -0.36161,-7.14602 -0.45477,-10.72264 -0.0634,-2.47422 -0.13076,-4.95488 0.0927,-7.42379 0.0859,-0.83162 0.12088,-1.71796 0.48434,-2.48465 0.003,-0.0985 1.39544,-0.0713 1.39351,0.0272 z"
           inkscape:connector-curvature="0" />
        <path
           style="opacity:1;fill:#000000;fill-opacity:1;stroke:none;stroke-width:0.1;stroke-linecap:round;stroke-linejoin:round;stroke-miterlimit:4;stroke-dasharray:none;stroke-dashoffset:0;stroke-opacity:1;paint-order:normal"
           id="path3992-8"
           d="m 583.8423,419.81452 c 0.29675,-0.5567 0.67675,-1.0677 1.0496,-1.57535 1.01269,-1.34171 2.10045,-2.62407 3.1964,-3.89782 2.1889,-2.47213 4.50083,-4.83306 6.828,-7.17441 2.5146,-2.53068 5.02248,-5.06774 7.56888,-7.5665 2.17099,-2.14258 4.37679,-4.24942 6.58995,-6.34829 1.67455,-1.59588 3.38611,-3.15183 5.06241,-4.7459 1.11828,-1.03485 2.19704,-2.11367 3.35965,-3.09942 0.0623,-0.0481 0.75271,-0.59352 0.86016,-0.62725 0.0477,-0.015 0.0254,0.15068 0.0717,0.13168 1.23378,-0.50697 0.28168,-0.55768 1.62745,-0.41884 0.0114,-0.007 0.10565,0.15534 0.0942,0.162 v 0 c -0.0269,0.18083 -0.0495,0.36234 -0.0807,0.54249 -0.0326,0.18833 -0.11887,0.37171 -0.11033,0.56264 0.003,0.0661 0.17074,0.0795 0.14171,0.13888 -0.30673,0.62784 -0.92807,1.13825 -1.30093,1.73074 -1.01832,1.17248 -2.12717,2.2614 -3.19706,3.38617 -1.63939,1.67999 -3.24406,3.39397 -4.91731,5.04057 -2.16604,2.15103 -4.34202,4.29194 -6.50994,6.44104 -2.52608,2.50591 -5.07339,4.99011 -7.62582,7.46916 -2.00327,1.93779 -4.04712,3.82824 -6.09148,5.72168 -1.25169,1.17329 -2.49933,2.35097 -3.76383,3.5105 -0.4395,0.40166 -0.88384,0.799 -1.28651,1.23839 -0.044,0.11075 -1.61022,-0.51141 -1.56622,-0.62216 z"
           inkscape:connector-curvature="0" />
        <path
           style="opacity:1;fill:#000000;fill-opacity:1;stroke:none;stroke-width:0.1;stroke-linecap:round;stroke-linejoin:round;stroke-miterlimit:4;stroke-dasharray:none;stroke-dashoffset:0;stroke-opacity:1;paint-order:normal"
           id="path3994-3"
           d="m 583.70103,365.95939 c 0.64411,0.0571 1.25596,0.30686 1.85889,0.5254 1.67044,0.67066 3.34592,1.32888 5.01772,1.9963 2.79476,1.09334 5.62038,2.10537 8.45042,3.10298 2.95515,1.02869 5.90708,2.06654 8.85589,3.11325 2.52899,0.91346 5.07019,1.79219 7.6137,2.66422 1.92397,0.65646 3.85575,1.28988 5.77927,1.94767 1.32673,0.46566 2.64597,0.95269 3.96531,1.43889 0.87326,0.32804 1.7317,0.72732 2.46931,1.30374 0.53691,0.5581 0.0402,-0.0552 0.38528,0.80708 0.0406,0.10141 0.13248,0.1737 0.19873,0.26055 0.0101,0.004 -0.0448,0.14526 -0.0548,0.14139 v 0 c -0.11758,0.0319 -0.24347,0.0418 -0.35269,0.0958 -0.85436,0.42172 -0.13023,0.28659 -0.90262,0.36344 -0.94608,-0.0264 -1.87402,-0.24852 -2.77834,-0.51808 -1.3403,-0.41198 -2.68018,-0.82514 -4.02386,-1.22607 -1.95221,-0.59922 -3.90793,-1.18692 -5.85851,-1.79147 -2.58612,-0.82354 -5.14573,-1.72445 -7.69186,-2.66425 -2.93206,-1.08028 -5.87201,-2.13829 -8.82045,-3.17311 -2.86694,-1.04229 -5.73669,-2.09 -8.50029,-3.38851 -1.62748,-0.7755 -3.21707,-1.6198 -4.76726,-2.54089 -0.46755,-0.26286 -0.94758,-0.50426 -1.41547,-0.76386 -0.1198,-0.0404 0.4518,-1.73485 0.5716,-1.69443 z"
           inkscape:connector-curvature="0" />
      </g>
    </g>
  </g>
</svg>
